<?xml version="1.0" encoding="UTF-8" standalone="no"?>
<!DOCTYPE svg PUBLIC "-//W3C//DTD SVG 1.1//EN" "http://www.w3.org/Graphics/SVG/1.1/DTD/svg11.dtd">
<svg width="100%" height="100%" viewBox="0 0 2000 2000" version="1.1" xmlns="http://www.w3.org/2000/svg" xmlns:xlink="http://www.w3.org/1999/xlink" xml:space="preserve" xmlns:serif="http://www.serif.com/" style="fill-rule:evenodd;clip-rule:evenodd;stroke-linejoin:round;stroke-miterlimit:2;">
    <g id="Oxygen-Alliance-Logo--1---1-.png" serif:id="Oxygen-Alliance-Logo (1) (1).png" transform="matrix(2.611689,0,0,2.611689,-9.298049,196.087734)">
        <path d="M476.922,575.485C477.132,575.773 477.341,576.061 477.55,576.349C483.281,576.07 483.965,576.077 484.523,576.083C514.871,576.384 514.87,576.138 517.507,576.236C529.807,576.695 532.785,576.023 535.482,576.576C539.777,577.457 540.381,576.911 551.507,577.037C565.403,577.195 586.069,577.22 586.507,577.236C600.454,577.756 600.518,576.756 605.425,577.811C606.917,578.132 606.933,578.067 624.501,578.111C626.981,578.117 653.98,578.184 655.509,578.245C666.055,578.665 670.768,578.039 673.478,578.591C679.572,579.832 680.131,578.343 682.53,579.448C683.291,579.798 687.367,584.176 687.558,584.446C687.974,585.034 688.043,584.955 688.537,585.464C688.704,585.637 688.775,585.89 688.945,586.061C689.112,586.23 689.364,586.3 689.531,586.469C689.702,586.643 689.773,586.9 689.944,587.074C690.108,587.242 690.36,587.309 690.521,587.48C690.692,587.663 690.75,587.935 690.922,588.117C691.081,588.284 691.336,588.338 691.493,588.506C691.662,588.686 691.707,588.96 691.879,589.136C692.045,589.306 692.316,589.347 692.483,589.517C692.654,589.69 692.696,589.964 692.867,590.136C693.036,590.307 693.31,590.349 693.478,590.521C693.654,590.703 693.704,590.98 693.871,591.17C694.017,591.337 694.257,591.404 694.4,591.574C694.574,591.781 694.648,592.057 694.805,592.277C695.086,592.669 696.073,593.685 696.188,593.803C701.194,598.954 701.206,598.929 701.569,599.435C701.987,600.019 702.047,599.941 702.541,600.461C702.707,600.636 702.778,600.888 702.948,601.06C703.114,601.23 703.365,601.3 703.531,601.469C703.701,601.641 703.762,601.905 703.941,602.067C704.291,602.384 704.75,602.566 705.096,602.887C705.276,603.053 705.322,603.331 705.495,603.505C705.663,603.675 705.929,603.725 706.096,603.896C706.267,604.07 706.311,604.344 706.483,604.517C706.654,604.687 706.929,604.727 707.099,604.899C707.27,605.071 707.31,605.346 707.478,605.521C707.637,605.686 707.902,605.723 708.053,605.894C708.222,606.085 708.281,606.349 708.405,606.571C709.012,607.668 710.985,609.516 711.233,609.748C712.196,610.65 712.72,610.843 711.811,611.81C711.311,612.341 711.219,612.171 710.486,612.104C703.878,611.497 700.172,611.949 697.522,611.409C693.005,610.488 683.786,611.053 680.526,610.394C675.92,609.462 667.675,610.073 664.518,609.424C659.917,608.478 650.724,609.061 647.522,608.409C642.906,607.467 634.075,608.09 630.529,607.379C626.189,606.509 617.458,607.028 614.518,606.424C609.896,605.474 600.705,606.057 597.522,605.409C592.906,604.467 584.075,605.09 580.529,604.379C576.163,603.504 567.444,604.025 564.518,603.424C559.762,602.447 551.002,603.097 547.526,602.394C543.153,601.509 533.883,602.051 530.529,601.379C526.13,600.497 517.64,601.044 514.522,600.409C510.015,599.489 500.822,600.06 497.526,599.394C493.123,598.503 483.876,599.05 480.529,598.379C476.064,597.484 467.675,598.052 464.522,597.409C460.015,596.489 450.821,597.06 447.526,596.394C442.92,595.462 434.675,596.073 431.518,595.424C426.883,594.471 417.776,595.072 414.522,594.409C410.005,593.488 400.786,594.053 397.526,593.394C392.92,592.462 384.675,593.073 381.518,592.424C376.866,591.468 367.755,592.068 364.522,591.409C359.906,590.467 351.075,591.09 347.529,590.379C343.189,589.509 334.458,590.028 331.518,589.424C326.822,588.459 317.972,589.091 314.526,588.394C310.153,587.509 300.883,588.051 297.529,587.379C293.715,586.614 286.653,586.921 282.493,586.583C281.235,586.481 281.159,586.069 278.509,586.04C272.073,585.971 270.612,586.653 270.55,585.486C270.438,583.365 273.354,584.455 281.516,581.546C283.262,580.923 289.595,579.403 297.541,576.617C299.49,575.933 299.557,576.237 301.513,575.536C301.751,575.45 301.743,575.5 304.527,574.581C306.762,573.843 314.834,574.379 317.574,573.828C323.351,572.665 328.099,573.546 331.576,572.829C337.319,571.645 338.993,572.569 342.577,571.838C347.815,570.77 347.924,571.637 351.587,570.847C356.006,569.894 356.103,570.614 360.531,569.618C363.522,568.946 363.596,569.537 366.593,568.851C370.352,567.99 370.446,568.593 373.588,567.814C376.536,567.083 376.603,567.445 379.534,566.62C382.012,565.922 382.103,566.468 384.597,565.83C387.071,565.196 387.112,565.48 389.598,564.83C392.068,564.184 392.119,564.484 394.595,563.814C395.063,563.687 399.135,562.585 400.466,562.328C404.199,561.608 404.146,561.41 404.47,561.348C405.102,561.227 405.751,561.191 406.377,561.04C407.455,560.78 407.379,560.595 408.47,560.367C412.192,559.591 412.143,559.405 412.466,559.34C413.095,559.213 413.74,559.168 414.362,559.009C415.439,558.733 415.367,558.545 416.457,558.307C419.164,557.715 431.674,554.098 438.539,551.607C439.152,551.385 440.284,551.238 441.611,550.814C445.55,549.554 447.356,548.666 447.54,548.607C461.503,544.171 465.619,542.081 468.419,541.247C471.022,540.473 470.844,540.046 473.429,539.278C476.03,538.504 475.858,538.095 478.435,537.304C481.022,536.51 480.856,536.136 483.429,535.289C486.806,534.176 487.764,533.22 489.547,532.613C491.676,531.888 491.639,531.838 493.683,530.886C496.546,529.552 496.623,529.775 499.479,528.456C499.869,528.276 504.198,526.277 504.357,526.199C504.492,526.133 504.561,525.969 504.697,525.904C507.55,524.544 507.64,524.801 510.472,523.443C515.957,520.813 530.438,513.572 531.671,512.805C532.288,512.422 532.229,512.368 532.83,511.957C533.541,511.471 533.635,511.691 534.37,511.248C534.507,511.166 534.569,510.985 534.711,510.912C535.241,510.642 535.83,510.502 536.361,510.234C536.504,510.161 536.57,509.978 536.712,509.903C537.154,509.67 537.211,509.788 542.291,507.111C543.501,506.473 543.31,506.19 544.56,505.602C544.889,505.447 547.105,504.291 547.325,504.175C547.519,504.074 548.597,503.511 549.679,502.801C552.769,500.773 552.901,501.022 554.694,499.82C558.183,497.482 558.315,497.724 559.685,496.804C562.442,494.952 562.468,494.998 562.707,494.835C563.803,494.089 563.746,494.017 563.843,493.956C564.315,493.663 564.86,493.503 565.343,493.227C565.489,493.143 565.568,492.969 565.714,492.886C566.05,492.696 566.296,492.764 567.688,491.798C569.193,490.753 570.087,490.243 570.699,489.813C571.163,489.487 579.509,483.932 579.695,483.798C581.83,482.26 581.679,482.082 581.869,481.956C582.786,481.347 582.846,481.482 583.726,480.852C584.807,480.077 584.759,480.019 584.855,479.955C585.762,479.347 585.824,479.475 586.711,478.818C588.835,477.245 588.681,477.081 588.87,476.953C589.781,476.341 589.853,476.484 590.725,475.843C592.777,474.335 592.887,474.509 594.818,472.867C595.961,471.895 595.982,471.958 597.271,471.15C597.694,470.885 598.278,470.4 598.362,470.33C599.102,469.716 600.422,468.203 601.565,467.593C603.808,466.397 605.08,464.397 606.569,463.598C607.196,463.262 607.16,463.238 607.714,462.806C610.49,460.638 610.289,460.431 610.877,459.948C611.72,459.256 611.837,459.461 612.699,458.78C615.939,456.222 618.121,453.381 619.576,452.605C619.928,452.417 620.833,451.934 623.419,449.415C624.818,448.051 624.753,448.004 624.874,447.887C626.301,446.517 626.357,446.597 626.478,446.477C626.646,446.313 626.716,446.065 626.887,445.904C627.065,445.735 627.331,445.678 627.505,445.505C627.675,445.337 627.724,445.071 627.895,444.905C628.071,444.735 628.344,444.69 628.52,444.521C628.683,444.365 628.716,444.098 628.889,443.952C628.937,443.911 630.301,443.32 630.437,443.284C631.193,443.087 631.207,443.111 666.5,443.111C673.786,443.111 673.795,442.721 674.4,442.904C674.487,442.93 675.17,444.168 675.172,444.329C675.175,444.504 674.855,444.486 674.727,444.604C674.014,445.263 651.83,467.662 650.565,468.569C649.981,468.987 650.06,469.048 649.539,469.541C649.363,469.708 649.109,469.779 648.935,469.948C648.766,470.113 648.697,470.364 648.526,470.527C648.347,470.699 648.083,470.765 647.903,470.937C647.736,471.098 647.676,471.349 647.506,471.507C647.323,471.677 647.049,471.728 646.868,471.901C646.7,472.061 646.653,472.324 646.484,472.483C646.301,472.657 646.027,472.709 645.837,472.875C645.669,473.021 645.599,473.26 645.429,473.405C645.223,473.58 644.95,473.658 644.73,473.815C643.664,474.577 640.273,478.046 639.537,478.54C638.938,478.942 639.034,479.022 638.503,479.504C638.157,479.818 636.88,480.724 636.735,480.826C636.409,481.058 635.315,482.057 635.195,482.167C633.266,483.93 633.31,483.963 633.142,484.116C632.581,484.627 632.454,484.433 631.9,484.948C631.733,485.103 631.672,485.351 631.502,485.503C631.207,485.767 629.856,486.702 629.71,486.803C629.326,487.07 629.348,487.087 628.174,488.141C627.103,489.102 627.079,489.058 624.301,491.218C621.352,493.511 621.566,493.732 621.124,494.048C620.597,494.424 620.508,494.267 619.295,495.206C616.479,497.384 616.439,497.833 616.127,498.049C615.235,498.666 615.155,498.516 614.281,499.179C612.181,500.772 612.314,500.916 612.127,501.047C611.236,501.667 611.171,501.523 610.287,502.183C608.177,503.759 608.314,503.916 608.127,504.047C607.224,504.674 607.157,504.535 606.288,505.182C604.173,506.756 604.319,506.919 604.13,507.047C603.227,507.653 603.16,507.512 602.275,508.156C600.804,509.227 600.75,509.12 599.293,510.188C597.158,511.752 597.32,511.918 597.13,512.044C596.23,512.645 596.173,512.507 595.275,513.147C594.191,513.92 594.242,513.982 594.146,514.045C593.238,514.647 593.189,514.528 592.286,515.164C590.804,516.207 590.761,516.122 589.287,517.165C587.813,518.209 587.781,518.139 586.299,519.187C584.82,520.232 584.779,520.146 583.293,521.166C580.551,523.048 580.525,522.998 580.288,523.162C579.193,523.923 579.254,523.983 579.156,524.044C577.284,525.217 577.153,524.968 575.321,526.209C573.417,527.5 573.195,527.565 572.3,528.178C571.201,528.93 571.26,528.987 571.163,529.048C570.69,529.342 570.15,529.516 569.668,529.794C569.419,529.937 566.933,531.369 566.588,531.627C565.676,532.309 565.646,532.236 564.667,532.796C564.477,532.904 562.902,533.806 562.316,534.195C560.077,535.68 560.054,535.598 557.698,536.857C557.232,537.107 556.659,537.541 556.573,537.606C556.414,537.727 556.329,537.93 556.166,538.044C555.465,538.533 555.366,538.315 554.638,538.758C554.499,538.843 554.431,539.021 554.287,539.098C553.767,539.376 553.192,539.54 552.668,539.811C552.525,539.885 552.442,540.05 552.299,540.126C548.655,542.066 548.627,542.007 548.326,542.201C545.205,544.211 545.142,544.055 541.676,545.838C540.847,546.264 531.744,550.948 531.332,551.212C530.722,551.604 530.777,551.656 530.182,552.049C529.468,552.521 529.381,552.313 528.629,552.757C528.493,552.837 528.431,553.017 528.29,553.087C527.755,553.354 527.162,553.491 526.626,553.758C526.488,553.827 526.434,554.018 526.294,554.082C525.738,554.335 525.147,554.499 524.569,554.694C521.865,555.605 510.636,561.677 507.574,562.709C504.095,563.881 501.539,565.756 498.562,566.679C496.112,567.438 496.269,567.784 494.472,568.434C492.364,569.195 492.389,569.206 490.333,570.138C487.441,571.448 487.167,571.36 484.498,572.496C479.785,574.502 476.922,574.501 476.726,574.8C476.596,574.999 477.053,575.286 476.922,575.485Z" style="fill:#75c043;fill-opacity:1;"/>
        <path d="M162.975,157.979C163.539,157.502 163.599,157.623 164.171,157.139C164.436,156.914 164.338,156.842 164.596,156.606C164.78,156.438 165.031,156.355 165.212,156.185C165.38,156.027 165.464,155.794 165.63,155.635C165.804,155.468 166.049,155.387 166.221,155.217C166.391,155.051 166.471,154.808 166.639,154.64C166.809,154.471 167.052,154.39 167.221,154.221C167.39,154.053 167.471,153.809 167.64,153.64C167.809,153.471 168.053,153.39 168.221,153.221C168.977,152.466 168.878,152.395 169.641,151.645C169.871,151.419 171.174,150.369 171.309,150.261C171.572,150.049 171.565,150.048 174.401,147.392C175.184,146.658 175.23,146.73 176.037,146.018C176.839,145.311 176.715,145.206 177.495,144.494C178.354,143.71 189.044,134.294 190.778,132.869C194.897,129.484 194.906,129.505 195.258,129.205C197.71,127.116 197.78,127.229 200.251,125.186C202.192,123.581 202.24,123.671 204.198,122.111C204.758,121.664 204.728,121.66 205.308,121.231C208.313,119.006 210.377,116.911 224.327,107.236C227.294,105.178 227.232,105.108 230.301,103.189C230.564,103.024 231.74,102.006 232.529,101.538C233.126,101.184 233.066,101.126 233.644,100.725C234.37,100.22 234.944,100.082 236.725,98.848C237.017,98.645 239.043,97.241 240.457,96.437C241.538,95.823 244.988,93.554 245.379,93.297C246.322,92.677 246.355,92.764 247.308,92.174C254.701,87.598 254.723,87.66 255.363,87.26C256.312,86.667 256.34,86.746 257.309,86.164C262.315,83.159 262.271,83.116 267.414,80.342C267.878,80.092 270.663,78.432 272.533,77.563C273.691,77.025 278.339,74.402 278.428,74.363C278.744,74.226 290.353,68.384 290.427,68.353C291.612,67.863 301.688,63 302.568,62.646C304.707,61.786 321.668,53.779 343.447,46.336C370.896,36.957 383.939,34.408 394.608,31.911C401.678,30.255 421.301,26.801 425.479,26.316C431.948,25.565 431.926,25.444 432.488,25.382C436.016,24.992 436,25.053 439.511,24.59C441.991,24.263 447.523,23.992 448.567,23.858C457.603,22.697 462.405,23.253 465.566,22.858C467.188,22.655 467.189,22.539 489.5,22.56C492.938,22.563 492.891,23.005 495.503,23.033C496.62,23.046 505.276,23.139 509.456,23.734C515.092,24.536 515.131,24.008 519.45,24.748C524.142,25.553 524.189,25.098 527.447,25.75C529.953,26.252 529.968,26.056 532.499,26.503C538.015,27.478 538.02,27.422 538.497,27.514C538.974,27.606 544.244,28.619 544.455,28.674C546.937,29.32 546.981,29.02 549.452,29.677C549.841,29.781 550.218,29.93 550.609,30.022C554.065,30.838 554.117,30.55 564.536,33.371C574.297,36.014 589.79,41.283 596.591,44.294C600.344,45.955 600.333,45.968 600.662,46.106C604.314,47.645 604.338,47.58 605.605,48.282C606.413,48.73 606.468,48.567 607.28,48.97C615.757,53.18 615.697,53.263 616.442,53.608C617.728,54.203 625.622,58.692 626.604,59.319C627.906,60.151 627.955,60.035 629.265,60.886C636.167,65.372 636.239,65.234 641.264,68.85C646.597,72.687 646.628,72.64 647.085,72.981C647.262,73.112 647.353,73.333 647.518,73.478C647.551,73.508 647.552,73.506 649.257,74.836C649.749,75.219 653.518,78.158 655.335,79.713C656.779,80.949 656.685,81.042 656.812,81.147C657.194,81.462 657.66,81.666 658.037,81.986C658.216,82.136 658.292,82.382 658.462,82.542C658.642,82.712 658.891,82.798 659.075,82.964C659.243,83.117 659.344,83.334 659.51,83.49C660.661,84.578 668.338,91.832 673.51,97.49C682.385,107.201 691.347,120.473 692.4,122.559C692.927,123.603 694.514,126.079 694.706,126.38C695.317,127.333 695.229,127.369 695.803,128.332C699.71,134.886 700.628,137.025 702.687,141.414C703.836,143.864 703.698,143.899 704.84,146.348C710.128,157.699 714.236,173.169 714.672,175.468C715.233,178.428 716.424,181.73 715.588,182.593C715.092,183.106 712.749,183.042 712.5,183.035C705.487,182.843 705.507,182.966 698.5,182.966C680.686,182.966 680.437,183.087 679.841,182.242C679.602,181.903 676.874,169.032 675.384,164.534C673.754,159.615 665.38,128.283 637.556,99.446C634.331,96.105 634.397,96.047 633.561,95.439C632.986,95.02 633.066,94.95 632.548,94.45C631.776,93.705 631.71,93.806 630.917,93.061C629.364,91.601 629.407,91.574 627.836,90.136C625.326,87.837 625.197,88.013 623.947,87.012C623.769,86.869 623.692,86.628 623.524,86.473C621.959,85.015 617.299,81.556 616.745,81.145C613.773,78.938 609.094,75.672 608.563,75.396C607.884,75.045 607.905,75.018 604.375,72.708C603.391,72.064 597.848,68.884 597.419,68.651C590.898,65.125 590.929,65.083 590.353,64.795C583.079,61.158 572.611,56.747 567.362,54.912C543.57,46.597 527.422,44.635 525.557,44.253C522.561,43.64 522.533,43.899 519.539,43.331C515.07,42.483 515.03,42.911 510.549,42.249C505.21,41.461 502.876,41.784 499.537,41.303C494.132,40.525 491.97,41.051 487.478,40.807C480.802,40.443 474.481,40.843 470.5,40.856C464.157,40.875 464.182,41.13 458.503,41.538C452.474,41.971 452.498,41.977 446.511,42.618C442.493,43.048 442.512,43.091 438.509,43.589C424.719,45.304 424.83,45.893 418.539,46.759C412.694,47.563 388.995,53.477 380.382,56.142C353.712,64.392 338.36,71.554 335.552,72.638C333.193,73.548 328.113,76.051 327.418,76.325C325.887,76.927 325.937,76.992 325.398,77.279C324.797,77.599 324.691,77.36 317.68,80.865C309.473,84.968 309.507,84.997 301.411,89.334C291.242,94.782 291.357,94.983 290.457,95.423C289.43,95.925 284.769,98.854 283.52,99.53C283.456,99.564 277.051,103.48 276.646,103.743C264.7,111.52 264.638,111.393 251.631,120.694C247.93,123.34 244.849,125.728 244.268,126.178C243.579,126.711 234.825,133.469 232.496,135.495C228.193,139.236 228.066,139.05 223.752,142.798C218.668,147.215 213.854,151.717 212.226,153.162C211.758,153.577 209.273,155.781 206.527,158.527C206.439,158.615 205.607,159.447 205.527,159.527C192.278,172.776 191.318,173.912 190.183,175.254C187.279,178.688 187.114,178.53 186.862,178.829C186.545,179.204 186.338,179.664 186.017,180.037C185.865,180.214 185.619,180.292 185.458,180.462C185.288,180.643 185.201,180.892 185.035,181.077C182.03,184.436 181.97,184.372 181.726,184.678C178.724,188.448 176.936,190.269 176.641,190.617C175.013,192.535 175.194,192.653 173.517,194.514C173.255,194.806 172.668,195.494 172.595,195.58C170.97,197.486 171.181,197.638 169.522,199.518C168.57,200.597 164.199,206.564 162.592,208.571C162.331,208.897 156.959,216.672 156.272,217.232C155.384,217.956 155.246,217.856 136.5,217.856C117.064,217.856 117.069,218.063 115.389,217.892C113.226,217.67 114.553,215.751 114.662,215.592C114.763,215.447 114.967,215.397 115.072,215.254C115.4,214.813 115.63,214.305 115.95,213.858C116.538,213.035 116.626,213.131 117.196,212.299C117.785,211.439 121.07,206.643 124.838,201.742C125.927,200.326 125.887,200.314 126.951,198.877C127.561,198.053 127.662,198.152 128.276,197.336C129.368,195.885 129.283,195.834 130.479,194.482C130.486,194.473 131.313,193.492 131.385,193.406C133.246,191.195 133.036,191.049 134.936,188.894C135.41,188.356 135.419,188.386 135.89,187.842C136.821,186.765 136.759,186.73 137.677,185.635C138.37,184.809 138.308,184.778 138.985,183.949C138.991,183.942 140.165,182.922 142.819,179.746C144.867,177.294 144.971,177.4 145.147,177.187C145.462,176.805 145.666,176.34 145.986,175.963C146.136,175.784 146.382,175.708 146.542,175.538C147.279,174.757 147.179,174.692 147.925,173.911C151.094,170.592 151.076,170.604 154.219,167.232C154.413,167.025 156.584,164.696 156.64,164.64C156.809,164.471 157.053,164.39 157.221,164.221C157.39,164.052 157.471,163.809 157.64,163.639C157.807,163.471 158.049,163.39 158.215,163.221C158.384,163.047 158.465,162.8 158.631,162.623C158.786,162.457 159.025,162.38 159.169,162.204C159.482,161.823 159.668,161.347 159.987,160.972C160.14,160.792 160.398,160.73 160.564,160.563C161.065,160.058 160.972,159.992 161.562,159.562C162.435,158.923 162.339,158.848 162.975,157.979Z" style="fill:#1b8b43;fill-opacity:1;"/>
        <path d="M608.106,444.283C607.96,444.408 607.741,444.424 607.596,444.548C607.402,444.715 607.299,444.972 607.106,445.141C606.026,446.085 605.859,445.849 604.793,446.819C604.623,446.973 604.537,447.204 604.369,447.36C604.12,447.59 604.078,447.511 601.153,450.113C600.682,450.532 600.68,450.524 596.775,453.832C596.22,454.302 596.251,454.307 595.689,454.745C592.366,457.331 592.535,457.516 589.245,460.157C571.685,474.249 562.252,480.462 557.613,483.677C548.258,490.159 540.695,494.553 538.275,496.134C536.973,496.984 536.929,496.867 535.622,497.707C534.512,498.42 529.736,501.243 529.437,501.387C527.847,502.153 523.519,504.868 522.431,505.374C521.481,505.816 511.924,511.122 511.419,511.344C510.725,511.647 508.7,512.806 507.425,513.35C507.314,513.398 498.057,518.081 497.425,518.35C497.162,518.462 483.495,525.117 468.355,531.141C451.704,537.766 447.242,539.168 433.523,543.581C418.319,548.473 395.163,553.858 390.531,554.674C389.326,554.887 389.353,554.957 375.5,557.5C373.975,557.78 372.605,557.883 372.558,557.891C370.515,558.224 370.553,558.313 368.519,558.638C365.513,559.117 365.51,558.984 362.501,559.508C361.944,559.606 361.932,559.487 355.486,560.397C354.769,560.498 354.766,560.36 346.486,561.379C342.271,561.898 339.524,561.734 335.46,562.284C330.416,562.966 316.178,562.966 314.5,562.966C306.173,562.966 286.971,563.117 280.547,562.248C275.061,561.507 275.014,562.094 269.545,561.266C268.003,561.032 253.367,559.725 233.506,555.473C223.626,553.358 214.045,550.443 212.373,549.934C209.942,549.194 209.963,549.209 207.491,548.533C204.55,547.73 184.814,540.694 177.332,536.859C174.005,535.154 173.889,535.428 173.603,535.276C173.011,534.962 173.052,534.905 172.427,534.647C171.801,534.388 171.865,534.308 171.261,533.978C170.47,533.545 170.4,533.748 169.605,533.291C169.021,532.957 169.065,532.911 168.427,532.647C167.521,532.271 156.825,526.418 156.624,526.289C152.35,523.55 142.482,518.214 127.752,506.168C127.206,505.721 127.194,505.768 126.646,505.307C126.484,505.171 126.393,504.961 126.225,504.832C126.117,504.749 125.365,504.485 124.539,503.456C124.236,503.079 122.184,501.431 120.834,500.15C120.631,499.956 120.328,499.669 118.248,497.777C118.037,497.586 116.145,495.865 115.64,495.36C115.471,495.191 115.39,494.947 115.221,494.779C114.555,494.112 113.888,493.445 113.221,492.779C113.053,492.61 112.809,492.529 112.64,492.36C112.471,492.191 112.39,491.947 112.221,491.779C112.053,491.61 111.809,491.529 111.64,491.36C111.471,491.191 111.39,490.947 111.221,490.777C111.054,490.608 110.812,490.528 110.647,490.358C110.214,489.909 110.426,489.738 105.51,484.491C105.354,484.325 105.121,484.239 104.977,484.062C104.66,483.674 104.456,483.202 104.141,482.811C104.002,482.638 103.774,482.555 103.628,482.388C101.979,480.505 102.176,480.36 100.501,478.5C100.351,478.334 100.121,478.248 99.985,478.071C99.814,477.846 99.855,477.823 97.901,475.222C97.737,475.003 97.639,474.738 97.466,474.526C97.33,474.359 97.111,474.269 96.984,474.095C96.675,473.67 96.474,473.173 96.168,472.745C96.053,472.584 95.851,472.5 95.732,472.342C95.386,471.881 95.419,471.864 91.652,466.403C91.649,466.398 85.884,457.263 84.472,454.518C83.957,453.518 83.815,453.612 83.363,452.572C82.914,451.538 82.787,451.62 82.353,450.573C81.222,447.845 78.758,444.693 79.602,443.584C79.99,443.073 80.148,443.144 101.5,443.144C117.569,443.144 117.659,443.067 118.438,443.593C119.102,444.042 119.598,445.257 119.664,445.42C120.456,447.362 125.905,457.581 127.707,460.377C128.175,461.103 133.149,468.82 133.614,469.414C133.793,469.643 139.693,477.614 141.473,479.524C141.629,479.692 141.869,479.77 142.013,479.948C142.328,480.337 142.521,480.816 142.835,481.207C142.938,481.335 143.028,481.223 144.278,482.671C145.221,483.765 145.158,483.79 146.125,484.845C151.2,490.381 151.436,490.131 153.084,491.916C153.406,492.264 153.629,492.697 153.965,493.03C154.208,493.27 154.304,493.155 157.168,495.85C158.771,497.359 158.859,497.233 160.403,498.609C161.181,499.303 161.097,499.371 161.881,500.055C162.011,500.17 162.042,500.094 163.58,501.405C164.578,502.257 168.816,505.471 169.275,505.82C178.499,512.815 189.472,518.853 191.303,519.861C231.638,542.055 277.134,545.139 278.521,545.227C285.028,545.642 284.992,546.031 291.508,546.153C299.61,546.305 301.622,546.441 302.5,546.501C303.617,546.577 303.616,546.533 316.498,546.312C324.264,546.179 326.667,545.853 327.543,545.734C331.881,545.146 334.537,545.483 338.55,544.752C340.19,544.453 359.007,543.152 386.468,536.363C388.005,535.983 388.015,536.089 389.536,535.617C391.967,534.863 394.055,534.385 394.452,534.294C403.791,532.153 429.234,523.637 439.406,519.278C444.541,517.077 444.639,517.346 449.704,514.958C450.255,514.698 450.317,514.855 456.687,511.907C457.306,511.621 464.117,508.469 464.426,508.345C465.477,507.922 465.391,507.782 466.427,507.353C466.69,507.244 479.675,500.76 480.405,500.322C484.454,497.893 484.674,498.311 488.694,495.837C489.09,495.593 489.1,495.623 493.735,492.931C495.677,491.803 495.717,491.918 497.614,490.693C499.858,489.243 500.015,489.554 502.235,488.074C507.067,484.851 509.439,483.799 522.308,475.195C523.652,474.296 535.878,465.653 537.436,464.416C539.409,462.85 539.498,463.004 541.433,461.416C542.002,460.949 542.042,461.023 548.65,455.705C549.759,454.813 549.781,454.861 550.875,453.933C553.075,452.064 553.184,452.236 555.392,450.37C555.564,450.224 557.056,448.963 557.524,448.527C557.692,448.372 557.77,448.131 557.948,447.988C558.34,447.671 558.817,447.471 559.217,447.163C559.346,447.064 559.292,447.016 560.744,445.821C563.463,443.584 563.597,443.24 565.484,443.16C569.748,442.981 600.723,443.454 606.459,442.923C607.254,442.849 607.315,442.875 607.384,442.903C607.499,442.951 607.434,442.998 608.106,444.283Z" style="fill:#1b8b43;fill-opacity:1;"/>
        <path d="M90.978,290.982C93.019,289.433 94.488,287.701 103.522,288.193C106.114,288.335 106.113,288.318 133.5,288.318C154.97,288.318 155.036,288.274 155.44,288.587C156.37,289.307 156.202,289.512 155.695,290.581C155.161,291.706 152.489,293.058 151.453,294.453C150.69,295.48 149.189,296.765 148.37,298.425C147.163,300.871 147.032,300.803 146.267,303.43C145.907,304.668 144.447,309.684 146.278,319.55C146.376,320.078 151.597,349.752 151.793,351.461C152.117,354.286 152.331,354.239 152.665,356.477C154.635,369.668 155.485,373.217 155.729,375.471C156.033,378.269 159.37,398.183 159.561,399.493C161.243,411.023 161.491,411.002 161.384,414.495C161.331,416.262 161.296,416.648 159.542,416.842C159.357,416.863 121.683,416.866 121.459,416.84C118.751,416.534 119.857,415.264 118.891,409.422C117.992,403.989 118.374,403.962 117.533,398.496C117.336,397.213 116.411,385.071 115.947,383.364C114.885,379.447 112.291,379.686 109.5,379.682C75.414,379.635 75.406,379.88 74.395,380.16C69.304,381.571 66.621,386.203 65.102,388.223C64.329,389.249 64.354,389.265 64.287,389.353C61.963,392.419 61.924,392.387 61.728,392.658C56.66,399.669 54.325,403.307 52.593,405.568C52.526,405.655 52.123,406.182 51.807,406.692C51.503,407.183 50.472,408.849 47.759,412.672C43.345,418.891 37.683,417.554 32.482,416.98C30.575,416.769 30.577,416.954 8.5,416.966C3.995,416.968 3.992,417.173 3.613,417.076C3.507,417.049 2.662,415.905 3.656,414.597C3.769,414.449 3.964,414.374 4.071,414.222C4.714,413.304 4.669,413.3 5.317,412.379C5.522,412.089 5.493,412.073 7.847,408.728C13.552,400.625 13.46,400.573 13.956,399.869C18.071,394.036 22.186,388.202 26.3,382.368C33.994,371.463 33.982,371.459 34.619,370.58C36.571,367.89 36.503,367.85 36.675,367.619C38.94,364.578 55.763,340.672 62.845,330.729C65.511,326.986 65.449,326.945 65.685,326.623C66.352,325.713 66.308,325.707 66.926,324.787C67.48,323.962 67.595,324.067 68.157,323.258C68.791,322.348 68.725,322.317 69.415,321.436C69.818,320.923 80.104,306.078 81.403,304.427C81.581,304.2 82.546,302.975 83.451,301.464C83.872,300.761 89.143,293.261 90.978,290.982L87.007,350.136C86.884,350.295 86.684,350.383 86.561,350.543C85.469,351.955 86.157,352.641 86.278,352.772C86.677,353.202 86.782,352.965 92.5,352.965C107.886,352.965 107.862,352.959 110.499,353.035C111.147,353.054 111.806,353.165 112.443,353.05C112.602,353.021 113.752,352.814 113.74,351.511C113.737,351.11 113.49,351.144 113.178,346.528C113.012,344.066 111.367,332.325 111.178,329.528C110.844,324.571 110.276,324.268 110.255,321.526C110.235,318.784 110.268,318.786 110.192,318.657C109.671,317.778 108.684,318.512 108.58,318.589C108.35,318.76 108.606,318.932 106.759,321.67C106.604,321.901 106.504,322.167 106.34,322.391C105.515,323.519 105.516,323.498 104.723,324.643C99.711,331.89 99.731,331.874 99.348,332.398C99.19,332.614 87.795,348.849 87.007,350.136L90.978,290.982Z" style="fill:#1b8b43;fill-opacity:1;"/>
        <path d="M696.117,62.906C696.358,63.16 696.303,63.534 697.564,64.431C698.115,64.822 700.926,67.61 701.73,68.185C701.949,68.342 702.223,68.42 702.429,68.596C702.599,68.741 702.669,68.981 702.837,69.129C703.025,69.295 703.3,69.346 703.48,69.521C703.651,69.688 703.693,69.96 703.864,70.127C704.04,70.298 704.314,70.34 704.492,70.508C704.66,70.667 704.709,70.925 704.877,71.084C705.059,71.257 705.334,71.31 705.517,71.481C705.688,71.64 705.752,71.891 705.919,72.054C706.095,72.226 706.355,72.296 706.53,72.469C706.701,72.637 706.761,72.899 706.939,73.059C707.296,73.378 707.755,73.569 708.114,73.886C708.293,74.045 708.362,74.3 708.531,74.469C709.293,75.23 709.361,75.134 710.114,75.886C710.283,76.055 710.362,76.3 710.531,76.469C710.7,76.638 710.945,76.717 711.114,76.886C711.282,77.055 711.362,77.3 711.531,77.469C711.699,77.637 711.944,77.714 712.11,77.884C712.279,78.057 712.351,78.309 712.521,78.48C712.686,78.648 712.936,78.715 713.098,78.886C713.266,79.064 713.321,79.332 713.493,79.506C713.662,79.677 713.93,79.724 714.097,79.896C714.267,80.071 714.311,80.344 714.479,80.52C714.638,80.685 714.902,80.724 715.054,80.896C715.21,81.072 714.884,81.27 716.688,83.335C717.574,84.348 719.345,86.182 719.581,86.425C719.741,86.591 719.96,86.692 720.116,86.861C720.283,87.041 720.37,87.286 720.54,87.463C720.702,87.63 720.942,87.71 721.1,87.88C721.268,88.06 721.334,88.319 721.503,88.498C721.656,88.66 721.906,88.713 722.049,88.884C722.16,89.016 721.964,89.127 723.193,90.714C724.076,91.853 724.134,91.781 725.108,92.862C727.042,95.006 726.603,95.335 728.536,97.47C728.681,97.631 728.923,97.695 729.047,97.873C729.67,98.77 729.531,98.839 730.183,99.713C730.289,99.855 731.336,101.258 731.532,101.474C731.677,101.634 731.924,101.69 732.044,101.87C732.644,102.77 732.506,102.827 733.147,103.725C733.309,103.952 733.394,104.231 733.568,104.449C733.698,104.612 733.93,104.68 734.045,104.854C734.653,105.771 734.535,105.817 735.164,106.714C735.324,106.942 735.419,107.214 735.59,107.434C735.716,107.595 735.936,107.672 736.044,107.844C736.628,108.776 736.516,108.825 737.147,109.722C738.68,111.907 738.582,111.951 739.854,114.3C740.098,114.749 740.544,115.337 740.609,115.423C741.044,115.995 741.103,115.931 741.404,116.557C741.417,116.584 744.28,121.965 744.618,122.421C745.033,122.982 745.101,122.919 745.397,123.56C745.52,123.828 745.602,124.117 745.754,124.371C745.836,124.507 746.015,124.569 746.087,124.711C746.357,125.241 746.498,125.83 746.766,126.361C746.839,126.504 747.023,126.57 747.097,126.712C747.372,127.239 747.535,127.818 747.804,128.348C747.874,128.486 748.038,128.561 748.107,128.699C748.375,129.233 748.539,129.814 748.807,130.349C748.875,130.486 749.039,130.56 749.107,130.698C749.373,131.236 749.534,131.822 749.8,132.36C749.866,132.494 750.032,132.561 750.096,132.696C751.739,136.133 751.398,136.263 753.148,139.667C754.189,141.693 754.631,143.112 754.728,143.423C755.531,146.005 755.953,145.835 756.74,148.421C757.529,151.011 757.939,150.848 758.691,153.44C759,154.508 761.474,161.601 761.704,162.44C762.259,164.454 762.362,164.403 762.842,166.428C762.898,166.664 764.577,172.235 764.625,172.474C764.938,174.039 764.915,174.029 765.387,175.536C765.757,176.717 765.69,177.848 766.172,179.599C766.546,180.96 767.595,182.872 764.538,182.965C762.776,183.019 733.818,182.863 728.501,183.034C724.064,183.177 725.158,181.155 723.536,175.489C722.965,173.495 723.128,173.47 722.524,171.492C721.248,167.304 721.066,165.629 719.572,161.474C719.03,159.968 719.123,159.958 718.573,158.473C718.02,156.976 718.127,156.96 717.572,155.473C717.018,153.987 717.113,153.967 716.539,152.485C715.964,151.001 716.088,150.975 715.459,149.518C713.76,145.582 713.924,145.306 713.122,143.664C712.367,142.12 711.957,141.561 711.285,139.576C710.329,136.755 705.63,127.914 705.383,127.577C704.967,127.009 704.898,127.075 704.605,126.439C704.334,125.852 701.802,121.079 701.407,120.564C701.285,120.404 701.063,120.331 700.958,120.159C700.669,119.681 700.518,119.13 700.243,118.644C700.161,118.499 699.985,118.425 699.899,118.283C699.311,117.315 699.466,117.241 698.822,116.3C696.497,112.904 696.627,112.848 696.408,112.567C696.282,112.405 696.064,112.326 695.953,112.154C695.356,111.231 695.462,111.18 694.836,110.287C693.374,108.2 693.53,108.107 691.891,106.163C691.06,105.178 691.015,105.221 690.952,105.129C690.336,104.229 690.481,104.153 689.83,103.28C689.723,103.138 688.721,101.795 688.472,101.523C688.325,101.363 688.076,101.307 687.952,101.127C687.368,100.284 687.525,100.202 686.82,99.28C686.712,99.14 685.722,97.847 685.442,97.552C685.284,97.385 685.054,97.298 684.9,97.128C684.733,96.945 684.663,96.687 684.493,96.506C684.341,96.344 684.094,96.288 683.951,96.117C683.84,95.984 684.04,95.859 682.799,94.288C680.856,91.829 680.7,91.98 679.888,91.126C679.721,90.95 679.639,90.704 679.468,90.53C679.304,90.363 679.06,90.287 678.898,90.117C678.73,89.94 678.665,89.68 678.493,89.506C678.327,89.338 678.067,89.281 677.904,89.11C677.734,88.933 677.685,88.662 677.516,88.485C677.359,88.32 677.097,88.277 676.946,88.106C676.213,87.271 676.556,87.013 674.812,85.2C672.52,82.817 667.119,77.408 666.277,76.805C666.057,76.648 665.781,76.574 665.574,76.4C665.405,76.257 665.337,76.017 665.17,75.871C664.98,75.705 664.703,75.654 664.52,75.479C664.35,75.314 664.308,75.045 664.138,74.879C663.961,74.708 663.686,74.662 663.506,74.493C663.338,74.336 663.284,74.081 663.117,73.922C662.935,73.75 662.664,73.692 662.48,73.521C661.952,73.03 662.047,72.95 661.458,72.545C660.809,72.099 658.212,69.48 657.273,68.824C657.127,68.722 655.737,67.752 655.477,67.527C654.94,67.062 655.02,66.989 654.43,66.578C654.126,66.366 652.434,64.907 652.291,64.81C650.449,63.552 650.51,63.507 648.72,62.172C644.623,59.115 644.664,59.069 644.293,58.824C642.563,57.68 642.589,57.678 642.434,57.588C641.835,57.24 641.903,57.174 641.318,56.791C639.805,55.803 639.851,55.759 638.332,54.776C632.102,50.747 632.104,50.745 631.532,50.448C630.531,49.928 629.674,49.11 629.277,48.896C628.901,48.693 625.263,46.729 624.56,46.398C623.321,45.815 623.515,45.531 622.291,44.89C619.521,43.437 619.482,43.542 616.699,42.109C616.562,42.038 616.485,41.876 616.347,41.807C613.539,40.401 613.509,40.512 610.698,39.107C610.561,39.038 610.486,38.875 610.349,38.807C609.899,38.584 609.878,38.639 604.664,36.154C602.221,34.99 602.17,35.164 599.685,34.098C599.555,34.042 599.484,33.888 599.355,33.828C595.182,31.894 595.045,32.266 594.687,32.092C594.559,32.029 594.493,31.874 594.364,31.814C590.421,29.986 572.421,24.131 570.498,23.505C568.102,22.726 557.746,20.118 555.47,19.652C555.049,19.566 550.52,18.302 547.46,17.824C544.446,17.354 544.504,17.109 541.471,16.745C539.937,16.56 537.975,15.962 537.445,15.89C535.005,15.56 534.995,15.696 532.592,15.15C529.608,14.473 529.537,15.052 526.531,14.382C522.291,13.437 521.292,14.043 518.518,13.429C512.604,12.119 512.448,13.46 505.575,12.189C503.701,11.842 478.947,11.479 472.504,12.011C471.249,12.115 471.108,12.707 470.168,11.863C468.837,10.667 470.001,10.491 471.405,9.394C472.843,8.271 473.02,8.564 474.45,7.432C474.613,7.304 474.678,7.07 474.853,6.958C475.115,6.79 475.14,6.846 478.279,5.117C479.247,4.584 479.941,3.31 482.456,3.068C485.002,2.823 484.942,2.459 487.498,2.378C503.354,1.879 528.04,2.075 530.482,2.576C535.025,3.509 540.155,2.854 543.482,3.573C548.107,4.574 549.864,3.835 553.469,4.62C557.647,5.529 557.73,4.937 560.478,5.583C564.401,6.506 564.489,5.933 568.403,6.855C568.631,6.909 583.288,9.253 592.393,11.836C592.845,11.965 598.507,13.23 602.499,14.502C605.969,15.608 606.013,15.413 609.483,16.547C612.976,17.687 625.046,21.778 625.317,21.906C626.346,22.396 626.313,22.439 627.368,22.836C636.733,26.371 637.557,27.069 639.691,28.089C642.935,29.639 643.063,29.317 646.303,30.895C646.44,30.962 646.513,31.126 646.65,31.194C647.185,31.461 647.767,31.626 648.302,31.893C648.439,31.962 648.514,32.125 648.652,32.193C649.186,32.461 649.767,32.626 650.302,32.893C650.439,32.962 650.514,33.125 650.652,33.193C651.185,33.46 651.767,33.625 652.3,33.893C652.44,33.963 652.515,34.128 652.654,34.199C653.183,34.467 653.763,34.628 654.289,34.902C654.431,34.977 654.493,35.162 654.636,35.234C655.168,35.503 655.758,35.642 656.289,35.912C656.443,35.991 657.04,36.562 658.575,37.389C659.569,37.924 659.535,38.031 659.704,38.121C661.475,39.059 661.511,38.94 663.285,39.901C663.429,39.979 663.502,40.156 663.642,40.242C663.891,40.393 664.195,40.444 664.439,40.603C664.591,40.703 664.66,40.9 664.809,41.005C666.04,41.863 667.256,42.432 667.48,42.536C669.134,43.31 668.964,43.558 670.553,44.425C671.971,45.2 672.131,45.588 673.567,46.408C673.721,46.496 674.697,47.053 675.446,47.584C676.022,47.992 675.958,48.06 676.567,48.408C676.721,48.496 677.711,49.062 678.446,49.584C679.023,49.994 678.955,50.065 679.563,50.417C680.116,50.738 680.436,50.943 684.287,53.817C684.861,54.246 684.886,54.172 685.437,54.593C686.008,55.028 685.937,55.092 686.53,55.464C687.015,55.769 688.566,57.12 688.696,57.208C688.844,57.308 690.31,58.299 690.52,58.477C690.688,58.619 690.757,58.853 690.92,59C691.133,59.192 691.165,59.148 693.281,60.811C694.83,62.028 694.765,62.081 696.117,62.906Z" style="fill:#75c043;fill-opacity:1;"/>
        <path d="M482.028,357.023C480.271,358.309 480.379,358.416 479.055,360.125C478.999,360.197 476.044,363.225 473.636,369.548C471.286,375.719 471.887,375.893 467.131,393.394C466.298,396.459 462.808,412.739 462.001,414.241C461.924,414.385 461.759,414.465 461.667,414.6C461.525,414.807 461.032,416.488 457.45,417.275C454.38,417.948 454.347,417.035 444.5,417.035C432.159,417.035 432.164,417.045 429.501,416.966C426.555,416.88 425.027,418.206 425.182,415.492C425.188,415.399 437.136,367.586 439.739,356.57C440.235,354.474 440.518,354.548 446.411,330.479C447.623,325.53 447.727,325.511 449.086,324.102C451.646,321.449 452.168,322.454 457.54,321.716C459.201,321.488 459.819,321.403 478.499,321.554C481.375,321.577 481.094,322.677 480.665,325.523C480.309,327.89 479.114,331.863 479.634,332.396C480.26,333.038 481.201,332.278 481.306,332.194C481.393,332.124 481.342,332.088 482.282,331.203C484.115,329.474 484.235,329.656 486.343,328.246C492.66,324.019 497.662,322.341 502.564,320.691C502.623,320.671 511.554,318.228 517.493,318.151C526.789,318.031 530.051,318.379 538.497,320.514C544.459,322.022 546.442,324.002 547.759,325.222C548.03,325.473 551.282,327.712 552.3,334.54C552.897,338.552 550.924,345.687 545.791,367.563C543.305,378.153 543.049,378.083 541.699,384.54C541.319,386.356 535.77,408.259 535.262,410.431C534.503,413.679 534.128,414.517 532.653,415.709C530.136,417.744 528.907,416.412 522.453,417.249C520.633,417.485 519.406,417.644 499.502,417.453C498.732,417.446 498.701,417.474 498.1,416.984C497.677,416.64 497.256,416.614 497.445,415.495C497.61,414.518 497.708,414.549 500.411,403.479C509.599,365.852 510.025,365.914 510.255,361.485C510.785,351.253 500.45,347.081 494.641,348.988C492.961,349.54 493.043,349.686 491.433,350.363C490.598,350.714 488.522,351.979 488.275,352.13C487.875,352.373 484.878,354.199 483.483,355.481C483.313,355.638 483.221,355.867 483.052,356.024C482.779,356.277 482.72,356.178 482.447,356.445C482.181,356.704 482.285,356.772 482.028,357.023Z" style="fill:#1b8b43;fill-opacity:1;"/>
        <path d="M656.982,338.974C657.256,338.773 658.123,338.138 660.132,336.131C661.766,334.498 662.167,333.635 668.387,329.323C668.804,329.035 671.529,327.146 673.749,325.955C689.811,317.34 708.289,317.554 715.458,318.713C720.097,319.462 720.116,319.298 720.519,319.366C730.336,321.016 734.725,324.341 735.764,325.128C736.989,326.056 739.248,327.084 742.798,332.308C742.982,332.578 744.751,335.182 745.005,335.743C752.532,352.398 745.47,370.518 743.764,372.685C741.647,375.376 740.888,375.035 716.5,375.035C676.995,375.035 676.879,374.983 676.431,375.417C675.506,376.313 676.048,379.255 676.108,379.584C676.915,383.964 677.505,384.686 678.37,386.569C678.547,386.954 679.702,388.943 680.457,389.539C681.02,389.984 680.937,390.047 681.466,390.537C685.821,394.574 692.763,394.295 694.501,394.315C703.131,394.414 708.344,393.398 710.476,393.229C714.012,392.949 713.971,392.775 717.489,392.382C723.657,391.695 723.624,391.54 729.507,389.522C731.501,388.839 732.239,389.543 731.473,391.492C730.317,394.435 730.428,394.451 729.313,397.43C725.533,407.526 725.647,407.553 725.307,408.426C723.302,413.569 722.844,414.09 722.49,414.491C722.289,414.72 720.5,416.131 720.36,416.199C719.159,416.781 698.733,421.249 690.496,421.032C683.694,420.853 683.701,421.15 678.476,420.819C674.775,420.585 664.211,419.013 657.386,414.7C654.979,413.18 654.953,413.262 654.752,413.121C651.334,410.712 648.867,408.077 648.407,407.585C647.66,406.787 647.759,406.726 647.035,405.901C644.896,403.459 645.013,403.387 643.28,400.625C638.865,393.591 637.644,383.22 638.562,376.508C639.866,366.977 643.381,359.58 646.658,353.585C647.345,352.329 648.09,351.191 648.473,350.482C649.564,348.463 654.436,341.994 654.715,341.665C655.944,340.214 656.043,340.314 656.148,340.188C656.461,339.809 656.669,339.352 656.982,338.974L687.001,347.038C684.986,348.719 685.28,348.956 684.025,351.263C683.856,351.573 682.238,354.548 682.633,355.458C682.722,355.663 683.026,355.678 683.193,355.827C683.339,355.958 683.377,356.217 683.56,356.287C683.709,356.344 710.061,356.334 710.472,356.286C712.015,356.103 712.41,355.04 712.901,352.594C713.066,351.772 714.229,345.981 709.356,342.724C708.236,341.976 703.314,339.47 699.432,340.139C695.779,340.77 695.812,340.878 692.463,342.43C692.201,342.551 690.903,343.152 689.468,344.463C689.297,344.619 689.212,344.855 689.042,345.011C688.861,345.178 688.603,345.249 688.426,345.421C688.256,345.588 688.188,345.841 688.017,346.009C687.75,346.271 687.675,346.15 687.412,346.416C687.149,346.683 687.275,346.761 687.001,347.038L656.982,338.974Z" style="fill:#1b8b43;fill-opacity:1;"/>
        <path d="M345.983,326.992C347.666,325.976 347.616,325.886 348.529,325.576C349.746,325.161 357.549,324.317 359.473,324.191C364.497,323.861 364.443,323.491 369.474,323.179C374.497,322.868 374.453,322.536 379.478,322.21C386.493,321.755 386.457,321.427 393.487,321.162C404.516,320.748 404.515,320.558 405.463,320.699C405.649,320.727 412.476,321.1 420.637,326.263C422.828,327.648 427.32,329.751 429.074,336.617C430.594,342.567 427.055,352.405 426.997,352.624C426.745,353.581 426.879,353.609 423.997,364.624C423.982,364.681 423.742,366.283 423.381,367.464C422.542,370.211 421.562,375.291 421.262,376.431C420.985,377.482 419.58,382.824 417.922,389.603C413.886,406.098 413.988,406.1 413.637,407.532C412.046,414.026 411.861,418.586 401.547,417.249C398.386,416.839 398.378,417.028 377.489,416.968C374.966,416.961 374.744,416.314 375.163,414.437C375.953,410.895 379.216,397.531 379.232,397.445C379.365,396.738 382.082,385.897 382.17,385.427C382.555,383.393 382.725,383.446 383.14,381.429C383.584,379.271 384.61,376.219 382.537,376.71C382.138,376.804 381.796,377.062 381.417,377.217C379.341,378.063 370.871,380.453 367.603,381.759C362.881,383.644 360.584,384.222 359.604,384.73C355.164,387.034 355.393,387.362 355.381,387.373C354.15,388.524 354.141,388.493 353.901,388.803C352.288,390.886 351.88,398.683 359.526,399.22C364.923,399.599 370.371,397.756 371.09,398.791C371.256,399.031 371.499,399.38 370.03,402.282C367.367,407.544 365.253,413.328 363.756,415.645C363.567,415.938 362.197,418.061 360.52,418.565C358.605,419.14 340.218,418.932 336.551,418.247C332.804,417.547 332.8,417.704 332.476,417.643C322.997,415.853 319.202,410.884 317.223,407.652C311.295,397.974 317.043,385.485 318.292,383.392C318.564,382.937 320.89,379.038 321.895,377.841C326.465,372.402 328.132,371.949 329.247,371.129C330.911,369.906 330.915,369.933 332.737,368.977C340.185,365.072 371.726,357.634 378.447,355.333C383.413,353.634 383.36,353.259 383.787,352.978C385.067,352.136 385.139,352.262 385.24,352.176C385.349,352.083 387.885,349.438 388.02,349.205C388.267,348.777 389.461,346.712 385.418,343.607C384.965,343.259 383.468,342.11 378.472,341.941C364.328,341.464 357.565,344.272 339.482,349.419C339.344,349.458 338.082,349.817 337.681,349.343C337.311,348.906 337.756,347.722 337.806,347.59C339.309,343.591 339.192,343.563 340.687,339.57C344.45,329.521 344.452,329.52 345.983,326.992Z" style="fill:#1b8b43;fill-opacity:1;"/>
        <path d="M426.595,207.215C426.298,207.247 426.055,206.864 425.758,206.896C425.57,206.917 425.547,207.216 425.407,207.344C425.214,207.521 424.957,207.621 424.769,207.803C424.007,208.543 424.108,208.617 423.36,209.357C423.039,209.674 421.836,210.644 421.701,210.753C421.04,211.285 421.084,211.327 413.91,217.953C411.576,220.109 411.724,220.24 409.39,222.379C409.207,222.546 408.958,222.629 408.779,222.8C408.611,222.961 408.53,223.198 408.364,223.361C408.192,223.529 407.948,223.611 407.777,223.78C407.609,223.947 407.528,224.189 407.359,224.355C406.799,224.905 406.447,224.949 404.168,227.157C397.69,233.43 395.403,234.291 397.156,236.709C398.792,238.966 398.773,238.975 398.92,239.167C399.537,239.968 399.64,239.859 400.276,240.661C401.655,242.402 401.466,242.514 402.836,244.246C403.954,245.66 403.881,245.697 404.953,247.147C405.077,247.315 405.289,247.402 405.419,247.565C405.559,247.738 406.409,248.796 407.099,249.778C407.992,251.05 409.534,253.245 418.741,265.338C418.86,265.494 422.349,268.6 418.505,268.545C396.412,268.23 396.42,268.616 394.515,268.386C392.264,268.114 390.709,264.643 390.125,263.753C389.591,262.938 389.473,263.042 388.941,262.215C387.415,259.841 387.46,259.816 387.321,259.613C381.188,250.655 381.263,250.6 380.705,250.144C379.604,249.244 379.409,250.061 372.611,256.617C370.261,258.884 370.168,258.776 369.965,258.974C369.205,259.718 369.286,259.769 368.527,260.527C368.445,260.61 367.607,261.447 367.527,261.527C367.047,262.007 361.81,267.245 361.488,267.486C359.999,268.603 359.828,268.44 342.5,268.44C335.172,268.44 335.072,268.735 334.681,268.328C333.573,267.172 334.803,267.101 340.047,262.033C346.594,255.704 346.657,255.773 347.221,255.217C347.982,254.468 347.877,254.391 348.642,253.646C348.818,253.474 349.066,253.388 349.248,253.223C351.434,251.234 352.56,250.121 352.841,249.844C354.61,248.095 354.705,248.22 356.472,246.472C356.993,245.956 360.978,242.359 361.562,241.562C362.173,240.728 364.016,239.396 364.221,239.2C364.389,239.039 364.47,238.802 364.636,238.639C364.808,238.471 365.052,238.389 365.222,238.22C365.391,238.052 365.471,237.808 365.64,237.64C365.809,237.471 366.053,237.39 366.223,237.221C366.392,237.053 366.473,236.809 366.643,236.641C366.811,236.475 367.064,236.409 367.223,236.234C367.385,236.056 368.009,234.694 368.001,234.581C367.972,234.179 366.02,231.528 365.833,231.273C361.079,224.816 360.616,224.091 358.625,221.414C358.453,221.183 356.823,218.991 356.511,218.492C355.782,217.329 353.014,213.762 352.701,213.358C352.016,212.477 352.136,212.408 351.443,211.543C350.312,210.132 350.382,210.099 349.323,208.62C347.822,206.521 347.738,206.617 347.609,206.436C346.046,204.226 347.794,204.104 350.498,204.141C351.353,204.153 370.807,204.129 371.517,204.16C374.257,204.278 374.656,206.239 377.165,209.724C381.486,215.725 383.251,218.997 384.305,219.844C385.488,220.793 386.834,218.849 387.841,217.841C392.593,213.087 392.615,213.136 397.376,208.376C399.396,206.355 400.726,204.561 402.452,204.231C403.444,204.042 449.527,204.163 449.533,204.163C450.928,204.306 451.429,204.339 452.581,208.477C453.561,211.993 453.648,211.948 454.636,215.459C458.033,227.524 458.25,227.441 458.524,228.494C459.439,232.026 459.657,231.949 460.573,235.481C461.61,239.474 461.899,239.383 462.704,243.414C462.987,243.725 463.271,244.037 463.554,244.348C464.067,244.402 463.661,244.976 464.176,245.03C464.227,245.035 464.218,245.034 464.451,244.441C465.27,242.357 465.478,242.477 466.363,240.428C466.644,239.779 466.712,239.842 467.084,239.258C467.793,238.144 467.532,238.026 474.861,224.697C475.172,224.132 478.145,218.725 478.649,217.576C479.483,215.675 479.687,215.81 480.014,215.237C480.453,214.468 480.256,214.396 480.72,213.621C485.547,205.555 484.849,204.459 487.468,204.169C488.762,204.025 505.928,204.11 507.533,204.117C511.039,204.135 509.014,206.322 508.436,207.465C507.93,208.465 507.901,208.433 507.348,209.414C506.568,210.8 504.815,213.551 504.388,214.437C503.603,216.063 503.405,215.936 502.554,217.535C501.848,218.861 494.468,231.383 494.43,231.461C494.051,232.239 490.279,238.666 489.681,239.604C488.948,240.752 488.053,242.49 486.723,244.627C484.589,248.056 484.832,248.173 482.675,251.598C482.484,251.9 481.046,254.184 480.423,255.457C479.63,257.078 479.457,256.952 478.586,258.556C478.307,259.07 477.202,261.049 477.081,261.266C476.976,261.454 473.768,266.753 473.423,267.457C472.803,268.725 467.879,276.592 467.295,277.357C461.555,284.883 455.353,286.797 452.501,287.504C444.456,289.497 435.632,288.576 429.447,287.78C429.314,287.763 428.138,287.611 427.891,287.171C427.821,287.045 428.083,286.901 428.037,286.764C427.986,286.613 427.699,286.626 427.657,286.472C427.575,286.169 427.657,285.842 427.703,285.531C427.763,285.128 428.424,280.7 428.462,280.494C429.496,274.974 429.298,274.945 429.444,274.48C430.269,271.85 435.756,274.19 441.521,273.954C444.622,273.827 445.364,272.857 445.572,272.585C446.442,271.448 446.726,271.691 447.423,270.447C448.759,268.062 447.895,267.618 447.278,265.57C446.449,262.824 446.238,262.915 445.731,261.418C443.905,256.026 443.978,256.026 442.137,250.623C434.908,229.414 434.819,229.451 434.194,227.606C433.652,226.003 428.87,211.867 427.368,207.583C427.11,207.46 426.853,207.338 426.595,207.215Z" style="fill:#1b8b43;fill-opacity:1;"/>
        <path d="M319.064,259.019C318.655,259.326 318.182,259.541 317.773,259.847C316.967,260.451 317.052,260.519 316.236,261.115C316.152,261.177 312.183,263.643 311.285,264.062C304.68,267.137 297.065,268.142 296.45,268.27C292.133,269.175 287.838,268.568 282.46,269.283C280.327,269.566 279.257,269.091 277.52,269.046C271.942,268.902 257.016,268.932 248.39,260.616C245.641,257.966 245.783,257.858 244.331,255.595C241.538,251.239 241.212,246.041 240.753,243.451C240.287,240.821 240.223,223.84 247.213,212.338C247.805,211.366 247.706,211.328 248.337,210.399C248.69,209.879 250.623,207.033 253.415,204.408C253.789,204.056 256.366,201.632 258.469,200.455C260.048,199.571 259.919,199.364 261.577,198.651C263.032,198.026 262.953,197.893 264.449,197.364C267.449,196.303 267.343,196.015 270.443,195.268C273.422,194.55 273.403,194.56 276.398,194.009C278.243,193.67 278.193,193.332 283.467,193.077C288.239,192.847 289.047,191.886 300.466,192.963C301.769,193.086 311.172,193.413 318.667,197.142C321.982,198.791 322.098,198.615 324.882,201.055C327.284,203.16 327.342,203.107 329.15,205.728C330.98,208.381 332.456,212.278 332.831,215.452C333.477,220.919 333.704,220.923 333.141,225.432C332.788,228.264 332.966,230.593 331.13,237.393C329.55,243.242 329.677,243.302 326.861,248.682C324.302,253.571 323.827,253.816 320.967,256.946C319.163,258.92 319.169,258.92 319.064,259.019L275.029,213.029C274.432,213.494 273.97,213.516 272.351,216.415C267.977,224.246 266.398,238.128 267.124,242.567C268.301,249.765 270.852,254.998 289.441,253.131C292.326,252.842 296.493,250.648 297.215,250.11C306.787,242.972 308.197,219.096 305.227,213.639C304.956,213.141 303.759,211.763 303.526,211.472C301.129,208.463 293.415,208.443 292.5,208.441C289.37,208.432 280.337,207.8 275.455,212.452C275.282,212.617 275.202,212.864 275.029,213.029L319.064,259.019Z" style="fill:#1b8b43;fill-opacity:1;"/>
        <path d="M584.026,256.983C584.194,257.151 584.269,257.396 584.436,257.563C584.603,257.73 584.863,257.791 585.013,257.972C585.337,258.361 585.534,258.842 585.836,259.247C586.949,260.74 587.059,260.681 587.585,262.474C589.435,268.784 587.908,274.406 585.709,277.629C585.609,277.775 584.722,279.076 584.412,279.42C584.257,279.592 584.021,279.678 583.87,279.852C583.556,280.212 583.378,280.685 583.029,281.011C582.66,281.355 582.157,281.523 581.754,281.827C581.592,281.949 581.506,282.154 581.344,282.278C581.257,282.345 580.688,282.784 580.223,283.078C579.651,283.442 576.189,285.639 572.57,286.72C570.765,287.259 567.64,288.377 565.535,288.709C560.559,289.495 560.597,289.709 556.532,289.898C552.507,290.085 552.542,290.434 548.5,290.44C540.977,290.452 540.981,290.413 538.564,290.132C535.789,289.809 528.265,290.118 520.567,289.142C519.007,288.945 508.777,288.785 507.672,287.36C507.212,286.766 507.341,286.664 508.333,279.478C509.033,274.405 509.416,274.153 509.802,273.899C510.384,273.515 510.456,273.732 518.51,274.352C524.02,274.775 523.976,275.164 533.502,275.325C534.062,275.335 534.058,275.379 540.499,275.569C543.513,275.659 543.486,275.956 546.5,275.965C548.512,275.972 548.499,275.977 550.498,276.033C551.058,276.049 551.433,276.06 557.454,275.22C557.979,275.147 561.63,274.638 563.484,272.485C564.131,271.734 566.256,267.506 561.615,266.14C558.802,265.311 551.383,265.426 549.5,265.445C548.86,265.451 548.868,265.579 541.504,265.691C531.726,265.84 529.497,266.156 528.463,266.302C528.123,266.35 523.385,266.726 522.493,266.669C521.857,266.628 519.577,266.481 515.958,262.104C515.449,261.488 515.617,261.402 515.135,260.742C514.784,260.261 514.694,260.326 514.37,259.568C513.559,257.676 512.584,256.008 513.19,251.447C513.257,250.942 513.562,248.643 515.588,245.557C516.54,244.107 517.111,244.115 516.506,242.496C516.355,242.092 514.688,240.391 514.677,240.376C510.463,234.808 511.517,222.002 516.721,215.666C518.323,213.714 520.395,212.112 520.746,211.841C523.29,209.873 524.104,209.511 524.429,209.367C525.474,208.903 525.388,208.774 526.43,208.356C526.714,208.242 527.017,208.174 527.29,208.034C527.891,207.725 527.845,207.66 528.48,207.446C533.91,205.618 533.875,205.506 539.496,204.477C542.983,203.839 543.018,204.219 546.537,203.697C547.405,203.568 549.088,203.318 557.493,203.154C558.213,203.14 561.972,203.066 566.486,203.621C572.403,204.349 572.342,205.283 576.54,204.716C578.584,204.441 581.843,204.622 583.501,204.516C589.417,204.136 599.554,204.179 600.48,204.115C602.991,203.941 603.944,204.012 603.504,206.501C602.97,209.512 602.971,209.49 602.56,212.507C601.776,218.276 601.222,218.498 600.577,218.707C599.451,219.071 592.756,218.641 592.554,218.71C592.378,218.771 592.34,219.02 592.197,219.14C592.011,219.297 591.688,219.312 591.58,219.53C591.357,219.98 593.253,228.734 588.718,235.63C585.566,240.424 583.846,241.108 582.81,241.915C581.641,242.825 576.268,247.009 565.502,248.515C565.002,248.585 548.437,249.563 545.501,249.483C542.456,249.4 537.189,249.163 536.606,249.636C536.435,249.775 534.47,251.794 538.509,251.626C540.35,251.55 540.352,251.819 561.535,251.085C571.813,250.729 579.287,253.402 582.361,255.702C582.496,255.802 582.484,255.797 584.026,256.983L540.232,220.05C540.075,220.141 537.437,221.098 536.071,225.352C535.903,225.875 534.618,229.876 535.983,232.221C536.232,232.649 537.291,233.512 537.415,233.613C538.31,234.341 538.313,234.33 539.425,234.688C544.168,236.212 550.555,236.296 554.537,235.693C557.445,235.253 567.779,235.336 568.488,225.499C569.099,217.029 557.596,217.642 552.5,217.682C547.68,217.719 546.784,217.942 544.49,218.455C541.619,219.098 541.676,219.232 540.232,220.05L584.026,256.983Z" style="fill:#1b8b43;fill-opacity:1;"/>
        <path d="M574.96,330.993C575.578,330.523 575.624,330.635 576.236,330.17C576.493,329.975 576.397,329.911 576.651,329.708C576.862,329.538 577.125,329.442 577.343,329.281C582.032,325.804 585.469,323.662 592.448,321.337C607.509,316.318 625.962,318.66 626.455,318.734C630.462,319.337 630.486,318.983 634.461,319.683C639.501,320.569 639.564,320.078 644.594,321.072C647.407,321.628 646.234,323.227 645.795,326.545C645.435,329.267 643.092,338.194 642.313,340.436C639.787,347.713 639.487,349.195 638.596,349.636C637.039,350.407 636.965,349.74 631.469,348.657C626.537,347.685 619.177,345.191 609.559,347.739C607.219,348.359 603.517,350.126 602.606,350.687C602.075,351.013 597.734,353.684 596.441,355.441C595.807,356.302 594.521,357.514 594.519,357.516C590.514,361.939 588.027,368.755 587.884,372.525C587.469,383.527 594.585,387.97 596.567,389.401C597.779,390.276 601.996,391.898 604.548,392.156C611.438,392.854 613.355,391.8 627.432,388.205C629.805,387.599 631.75,386.513 632.415,386.812C633.913,387.484 633.046,387.962 632.375,389.453C630.047,394.636 628.689,399.032 626.385,404.45C626.105,405.109 624.731,408.466 624.688,408.583C623,413.144 622.047,414.246 621.692,414.656C621.154,415.278 620.672,416.133 617.38,417.122C613.883,418.174 606.094,419.609 605.521,419.682C595.993,420.893 592.616,420.703 591.493,420.64C575.867,419.762 567.141,414 565.316,412.796C561.074,409.995 559.975,408.578 559.223,407.751C558.875,407.369 556.228,404.458 555.359,402.578C554.886,401.554 554.746,401.648 554.322,400.585C554.074,399.963 554.028,400.004 553.733,399.401C551.587,395.028 551.244,387.569 551.195,386.519C550.92,380.554 553.301,368.948 553.703,367.559C556.218,358.867 557.12,356.922 558.289,354.401C560.369,349.913 560.473,349.969 560.647,349.576C561.38,347.926 561.583,348.054 562.446,346.465C563.583,344.37 565.365,341.972 565.643,341.598C566.215,340.828 570.045,335.904 570.951,334.922C571.954,333.836 573.409,332.929 574.96,330.993Z" style="fill:#1b8b43;fill-opacity:1;"/>
        <path d="M194.975,291.732C198.033,286.967 201.49,288.282 207.5,288.317C228.712,288.443 228.703,288.103 230.534,288.309C230.686,288.326 231.959,288.469 232.029,289.502C232.056,289.893 228.3,304.332 227.965,305.619C227.599,307.026 227.759,307.05 227.341,308.453C227.198,308.936 226.324,311.873 225.792,314.565C225.388,316.606 215.294,356.305 214.657,359.531C214.204,361.825 212.125,369.721 211.893,370.604C211.523,372.01 211.636,372.024 211.262,373.431C208.727,382.973 201.188,414.293 200.666,415.577C200.028,417.144 198.627,416.856 190.5,416.856C165.303,416.856 165.13,416.931 164.663,416.349C163.924,415.429 165.583,410.279 166.044,408.391C168.951,396.454 169.121,395.592 169.343,394.469C169.598,393.177 173.174,378.812 173.25,378.444C173.85,375.533 192.13,303.64 193.328,297.468C193.879,294.628 194.956,291.792 194.975,291.732Z" style="fill:#1b8b43;fill-opacity:1;"/>
        <path d="M248.256,416.08C244.121,417.74 243.878,416.7 240.518,416.98C239.729,417.046 239.034,417.437 235.5,417.44C216.231,417.458 214.518,417.666 214.503,415.5C214.501,415.17 220.386,391.948 221.209,388.437C221.585,386.838 227.789,361.785 228.363,359.468C229.334,355.55 239.861,313.043 240.463,310.492C241.566,305.819 244.861,292.965 245.251,291.443C245.776,289.393 245.791,288.589 248.501,288.561C248.757,288.559 278.288,288.561 278.5,288.56C278.734,288.558 281.237,288.543 281.429,288.663C281.64,288.793 281.605,289.138 281.768,289.326C281.87,289.443 282.139,289.384 282.185,289.532C282.431,290.319 281.956,290.286 279.824,299.566C278.991,303.188 275.222,317.754 272.262,330.431C271.408,334.089 265.356,358.147 264.75,360.556C264.394,361.972 264.439,361.969 264.075,363.378C260.076,378.837 257.441,391.05 253.145,406.392C251.767,411.313 252.007,413.428 248.256,416.08Z" style="fill:#1b8b43;fill-opacity:1;"/>
        <path d="M613.96,215.909C616.962,212.561 619.768,210.624 620.329,210.236C620.599,210.05 623.125,208.306 623.756,207.989C634.493,202.604 649.258,203.204 651.507,203.296C652.636,203.341 660.244,203.651 665.413,205.723C670.017,207.569 672.251,209.768 672.742,210.252C673.728,211.224 679.181,216.662 678.654,227.506C678.601,228.597 677.274,237.363 677.257,237.446C676.384,241.518 676.976,242.083 675.509,242.525C674.914,242.704 674.898,242.682 644.5,242.682C630.012,242.682 629.942,242.617 629.275,243.068C628.105,243.857 627.881,244.012 628.314,246.537C628.718,248.889 628.944,251.08 631.099,252.956C632.999,254.61 635.038,254.944 648.492,254.296C656.817,253.895 665.226,252.454 665.5,252.428C666.732,252.31 666.585,252.733 666.944,253.169C667.064,253.315 667.335,253.34 667.386,253.522C667.45,253.748 666.289,260.728 665.737,264.537C665.409,266.808 664.254,267.045 660.51,267.584C648.283,269.343 634.721,268.948 632.476,268.883C631.025,268.841 620.544,268.536 614.728,265.095C610.191,262.41 608.263,258.968 607.886,258.295C602.09,247.946 606.785,229.845 608.568,225.529C609.913,222.274 609.978,222.314 610.358,221.427C610.566,220.943 611.043,219.831 613.96,215.909L635.055,221.075C634.701,221.489 633.491,222.435 632.15,225.349C632.051,225.564 631.105,227.62 631.717,228.276C632.03,228.611 632.121,228.56 649.5,228.56C652.109,228.56 655.229,228.845 655.731,227.632C655.783,227.508 656.246,225.33 655.85,223.425C655.798,223.171 655.629,222.36 654.642,220.414C654.193,219.53 652.896,216.975 642.528,217.78C637.101,218.201 635.473,220.68 635.055,221.075L613.96,215.909Z" style="fill:#1b8b43;fill-opacity:1;"/>
        <path d="M288.922,321.984C289.329,321.781 292.078,320.408 294.465,320.705C298.466,321.204 298.467,321.034 302.5,321.034C323.57,321.034 323.819,320.935 324.258,321.667C324.755,322.495 323.262,327.201 322.893,328.604C322.523,330.01 322.636,330.024 322.262,331.431C322.048,332.238 320.369,338.558 319.75,341.556C319.626,342.157 316.916,352.753 316.751,353.556C316.464,354.951 312.87,369.169 312.792,369.565C312.439,371.349 311.991,372.519 311.969,372.616C310.566,378.641 310.567,378.626 308.997,384.624C308.982,384.681 308.742,386.283 308.381,387.464C307.509,390.316 306.538,395.449 306.262,396.431C305.215,400.152 304.497,403.547 304.262,404.431C302.312,411.773 302.477,411.807 302.298,412.442C301.358,415.774 301.97,417.133 298.497,417.034C292.466,416.862 271.278,417.015 267.482,416.969C265.835,416.949 265.299,417.175 265.123,415.54C265.045,414.815 267.945,403.38 268.14,402.429C269.178,397.354 281.628,347.933 282.14,345.429C282.973,341.359 283.038,341.396 284.07,337.389C284.432,335.981 284.276,335.97 284.675,334.549C285.234,332.557 285.058,332.525 285.635,330.538C286.21,328.554 285.982,328.509 286.621,326.538C287.732,323.115 288.031,323.257 288.922,321.984Z" style="fill:#1b8b43;"/>
        <path d="M764.012,209.975C766.365,213.183 768.51,217.043 767.605,225.509C767.553,225.993 767.46,225.977 766.694,231.526C766.616,232.087 766.568,232.069 765.623,238.516C765.18,241.535 765.045,241.492 764.684,244.523C764.323,247.548 764.055,247.494 763.73,250.528C763.669,251.091 763.601,251.072 762.664,257.522C762.226,260.533 762.049,260.485 761.711,263.526C761.203,268.098 760.658,268.392 758.499,268.435C758.072,268.444 741.891,268.439 741.5,268.44C741.267,268.441 738.842,268.452 738.596,268.291C738.395,268.16 738.432,267.829 738.274,267.649C738.175,267.536 737.897,267.604 737.865,267.457C737.822,267.268 740.305,250.808 740.721,248.55C741.296,245.431 741.899,241.202 741.99,240.561C744.585,222.359 746.533,219.399 739.594,218.077C730.443,216.334 718.924,220.284 717.835,225.566C717.399,227.684 716.707,232.878 716.623,233.516C716.519,234.293 715.099,242.08 714.73,245.528C714.669,246.091 714.558,246.071 713.667,252.522C713.329,254.971 713.114,254.924 712.822,257.543C712.642,259.148 711.416,267.063 711.252,267.369C710.767,268.276 709.652,268.395 709.489,268.412C709.053,268.458 689.692,268.45 689.516,268.423C688.101,268.208 688.161,266.691 688.168,266.504C688.194,265.856 688.266,265.867 689.362,258.481C689.737,255.955 689.895,255.999 690.188,253.461C690.458,251.113 695.718,218.516 696.347,213.481C696.417,212.919 696.478,212.941 697.439,206.491C697.773,204.248 698.221,204.161 700.495,204.145C701.698,204.137 714.135,204.05 715.529,204.154C718.352,204.365 717.2,206.279 718.475,206.561C719.551,206.798 720.55,205.899 723.437,205.246C725.863,204.697 725.81,204.51 727.463,204.269C734.463,203.246 734.457,203.06 744.504,203.332C746.461,203.384 747.082,203.606 751.541,204.213C754.579,204.627 759.877,206.632 762.381,208.66C762.633,208.864 762.545,208.919 762.815,209.137C763.39,209.601 763.431,209.506 764.012,209.975Z" style="fill:#1b8b43;fill-opacity:1;"/>
        <path d="M295.954,290.645C296.217,290.312 296.207,289.814 296.47,289.481C296.653,289.249 296.996,289.205 297.231,289.027C297.358,288.931 297.396,288.722 297.546,288.668C297.848,288.558 298.183,288.578 298.504,288.566C298.68,288.56 323.602,288.55 324.498,288.573C329.89,288.711 331.129,293.007 331.254,294.536C331.399,296.319 328.883,305.912 328.623,306.557C327.97,308.178 325.856,307.855 322.5,307.856C293.567,307.856 293.566,307.859 293.411,307.825C291.165,307.33 292.306,306.192 295.954,290.645Z" style="fill:#1b8b43;fill-opacity:1;"/>
        <path d="M347.983,196.007C347.242,194.754 347.247,194.762 347.183,194.653C344.05,189.366 354.544,181.974 361.321,184.904C362.994,185.627 362.945,185.742 363.943,187.261C366.335,190.903 361.045,197.201 354.507,197.648C350.298,197.936 348.633,196.385 347.983,196.007Z" style="fill:#1b8b43;fill-opacity:1;"/>
        <path d="M345.274,180.055C342.932,180.878 342.934,181.091 340.467,180.796C336.007,180.263 335.885,174.747 342.543,172.64C346.948,171.247 351.817,175.813 345.274,180.055Z" style="fill:#1b8b43;"/>
    </g>
</svg>
