<?xml version="1.0" encoding="UTF-8" standalone="no"?><!DOCTYPE svg PUBLIC "-//W3C//DTD SVG 1.1//EN" "http://www.w3.org/Graphics/SVG/1.1/DTD/svg11.dtd"><svg width="100%" height="100%" viewBox="0 0 16426 11073" version="1.1" xmlns="http://www.w3.org/2000/svg" xmlns:xlink="http://www.w3.org/1999/xlink" xml:space="preserve" xmlns:serif="http://www.serif.com/" style="fill-rule:evenodd;clip-rule:evenodd;stroke-linejoin:round;stroke-miterlimit:2;"><g><path d="M7865.083,5304.042c-198.833,459.75 -380,928.708 -670,1342.417c-433.667,618.708 -1015.292,1024.917 -1749.458,1210.917c-306.375,77.625 -616.542,116.125 -931.958,96.75c-667.25,-40.958 -1276.292,-234.542 -1795.208,-676.208c-488.125,-415.458 -773.333,-947.042 -927.542,-1559.667c-71.333,-283.417 -88.042,-571.833 -88.042,-861.792c0.083,-1514.167 1.625,-3028.333 2.75,-4542.458c0,-28.542 0.667,-57.125 1.292,-85.667c0.583,-24.417 13.875,-36.667 37.792,-37.167c301.708,-6.625 602.5,-19.125 881.958,134c382.5,209.625 574.833,540.958 631.375,961.25c13.542,100.583 12.208,203.625 12.292,305.542c1,1081.583 0.292,2163.125 1.5,3244.708c0.333,318.375 66.875,622.375 207.625,909.458c279.583,570.167 835.458,783.583 1391.792,698.542c371.042,-56.75 643.333,-256.708 841.375,-569.917c193,-305.25 281.292,-640.5 282.125,-997.958c2.667,-1134.625 1.458,-2269.25 0.542,-3403.875c-0.083,-122.958 3.25,-245.125 38.708,-363.417c151.833,-507.083 481.167,-823.458 1008.042,-909.833c147.25,-24.125 301.125,-7.333 451.958,-10.042c37.333,-0.667 50.042,17.75 48.417,52.417c-1.167,24.417 -0.083,48.958 -0.083,73.458c0.083,1412.167 -1.167,2824.333 3.042,4236.458c0.292,105.083 -31.042,168.083 -122.417,210.792c-50.75,23.75 -97.625,55.833 -147.417,84.833c-26.208,-49.625 -18.667,-99.708 -18.625,-147.542c1.833,-1363.167 -10.292,-2726.333 3.458,-4089.458c1.625,-162.5 -2.083,-162.042 -161.583,-137.75c-497.208,75.792 -821.917,480 -822.458,987.083c-0.875,832.583 -1.708,1665.208 -2.667,2497.792c-0.375,326.5 4.333,653.125 -3.125,979.5c-10.042,437.833 -179.833,934.667 -380.292,1207.083c-48.667,68.708 -75.458,130.875 -114.75,178.5c-262.625,241.333 -560.792,409.917 -923.958,441.375c-24.333,2.125 -46.917,12.208 -70.958,16.417c-742.917,53.75 -1448.083,-343.042 -1709.292,-1177.333c-80.875,-258.292 -119.917,-522.917 -119.167,-795.208c3,-1101.625 0.667,-2203.208 1.958,-3304.833c0.167,-144.708 -20.792,-284.167 -69.458,-420.083c-125,-349.167 -390.875,-517.75 -740.417,-579.458c-79.917,-14.125 -127.667,11.083 -124.333,100.708c1.042,28.5 -0.25,57.125 -0.25,85.667c0,1440.25 -11.375,2880.625 4.75,4320.708c8.167,729.083 235.792,1389.208 776.583,1909.667c426.167,410.125 937.625,642.5 1524.667,708.458c646.375,72.625 1250.917,-58 1804.833,-396.5c442.542,-270.417 761.042,-659.417 1004.375,-1113.375c123.5,-230.417 213.708,-476.292 331.167,-709.5c86.708,-123.25 222.708,-136.5 354.667,-156.583c32.417,-4.917 55.5,11.542 44.375,51.125l0.042,0l-0.002,-0.001Z" style="fill:#75c043;fill-rule:nonzero;"/><path d="M12691.042,3931.208c-101.167,-213.625 -205.833,-424.542 -301.875,-639.333c-340.667,-761.667 -679.042,-1524.375 -1016.875,-2287.292c-131.917,-297.917 -355.25,-487.75 -674.458,-542.083c-384.333,-65.375 -711.5,105.875 -896.5,448.667c-91,168.667 -161.083,347.125 -237.25,522.75c-348.458,803.208 -698.167,1605.875 -1047.125,2408.875c-111.958,257.667 -225.208,514.833 -332.792,774.292c-28.125,67.833 -64.708,104.458 -139.375,114.5c-75.25,10.125 -148.5,35.458 -232.042,33.833c35.167,-137 94,-257.583 148.5,-379.125c516.083,-1150.667 1011.917,-2310.208 1510.875,-3468.333c138.542,-321.583 351.75,-556.792 678.792,-677.583c506.458,-187.083 1131.542,-32.167 1454.667,588.667c131.25,252.167 234.875,518.708 350.083,779.167c304.542,688.542 606.917,1378.042 932.875,2056.833c41.083,85.542 40.958,86.417 -34.375,150.708c-40.292,34.375 -82.25,66.792 -124.25,99c-9.25,7.083 -22,9.5 -38.833,16.417l-0.042,0.042l0,-0.002Z" style="fill:#002b39;fill-rule:nonzero;stroke:#75c043;stroke-width:1px;"/><path d="M14723.125,7857.542c-330,0 -637.375,21.125 -940.708,-4.792c-490.458,-41.917 -866.792,-292.458 -1069.792,-743c-247.208,-548.667 -460.958,-1112.417 -691.875,-1668.5c-24.083,-58.042 -14.875,-85.75 40.333,-113.958c175.167,-89.5 175.833,-92 250.167,84.5c213.125,506.042 425.333,1012.5 636.917,1519.208c121.625,291.292 330.5,488.125 629.167,590.042c85.375,29.125 172.417,46.667 262.917,46.458c141.5,-0.333 283.042,-0.083 440.875,-0.083c-81.75,-190.833 -155.292,-366.042 -231.625,-540c-317.083,-722.833 -635,-1445.292 -952.583,-2167.875c-8.208,-18.625 -15.5,-37.667 -24.375,-56c-40.5,-83.722 -22.861,-154.556 52.917,-212.5c38.25,-29.125 77.375,-57.042 124.625,-91.792c490.75,1118.833 978.25,2230.333 1473,3358.333l0.042,-0.042l-0.002,0.001Z" style="fill:#002b39;fill-rule:nonzero;"/><path d="M10548.417,1997.083c-48.792,41.125 -57.75,81.75 -73.083,118.708c-334.667,805.375 -657.167,1615.875 -1002,2417.042c-53.375,124 -52.292,124.5 -187.625,115.667c-4.083,-0.25 -8.125,-0.5 -12.208,-0.792c-153,-11.875 -157.417,-15.5 -100.125,-154.167c158.792,-384.208 323.042,-766.208 479.833,-1151.208c212.125,-520.75 441.625,-1034.375 636.542,-1562.125c15.458,-41.875 36.125,-82.042 56.5,-121.917c40.333,-78.875 101.875,-124.75 194.208,-123.458c88.792,1.25 146.125,51.833 180.958,124.833c63.125,132.375 121.125,267.25 177.875,402.542c316.917,755.208 633.167,1510.708 948.75,2266.458c64.167,153.708 59.042,160.917 -103.792,202.5c-93.042,23.75 -110.917,18.875 -150.917,-73.583c-98.708,-228.125 -190.25,-459.375 -290.208,-686.958c-239.292,-544.833 -465.5,-1095.125 -695.375,-1643.917c-16.958,-40.458 -36.5,-79.833 -59.417,-129.625l0.084,0Z" style="fill:#002b39;fill-rule:nonzero;"/><path d="M9088.75,5438.417c-1.25,48.792 -23.75,92.625 -42.042,136.583c-198.375,477.042 -395,954.833 -598.208,1429.792c-147.458,344.667 -374.458,618.042 -730.667,765.542c-136.75,56.625 -278.375,89.208 -427.167,88.917c-280.5,-0.542 -561,-0.167 -861.333,-0.167c149.042,-244.208 342.958,-420.125 572,-595.458c-31.042,110.5 -83.458,192.208 -76.833,300.333c176.208,0.75 351.375,23 523.167,-12.833c318,-66.333 529.25,-272.75 678.667,-549.625c96.708,-179.167 166.375,-370.875 246.042,-557.833c132.25,-310.333 261.167,-622.083 392.667,-932.75c42.25,-99.792 43.958,-99.25 153.333,-93.5c48.792,2.542 97.542,5.708 146.25,9.583c7.375,0.583 14.292,6.583 24.125,11.375l0,0.042l-0.001,-0.001Z" style="fill:#002b39;fill-rule:nonzero;"/><path d="M14647.458,2921.75l-1486.875,139.333l368.375,495.125c-304.333,257.5 -607.667,516.125 -914.75,770.333c-159.917,132.375 -321.5,263.917 -512.958,351.667c-190.833,87.458 -388.958,105.333 -596.833,89.167c-240.417,-18.708 -341.667,56.792 -420.042,283.167c-46.667,134.792 -92.083,270.083 -138.917,404.833c-8.417,24.25 -7.417,58.625 -44.667,58.75c-23.625,-13.25 -24.375,-34.917 -29.125,-54.25c-89.167,-360 -168.708,-722.125 -241.833,-1085.667c-36.167,-179.833 -71.458,-359.917 -110.167,-539.208c-16.083,-74.5 -64.083,-122.375 -142.083,-132.5c-68.625,-8.917 -124.75,27.167 -164.667,103c-9.458,18 -17.667,36.875 -24.583,56c-103.333,287.667 -205.333,575.833 -309.875,863.083c-65.375,179.542 -30.833,167.958 -240.458,158.292c-493.417,-22.75 -987,-31.083 -1478.042,31.75c-518.75,66.375 -996.167,240.708 -1410.125,570.083c-143.583,114.25 -288.042,227.167 -421.5,353.708c-112.625,106.833 -240.542,195.083 -365.792,286.167c-19.5,14.167 0,0 -64.625,42.167c-335.125,274.125 -364.042,339.083 -743.125,486.333c-54.75,11.208 -234.833,101.125 -374.292,127.583c159.458,8.5 142.208,8 290.625,-3c535.5,-61.167 995.708,-289 1404.5,-635.125c220.542,-186.708 434.292,-381.792 676.958,-542.417c109.5,-72.458 237.708,-107.625 339.667,-190.75c99.75,-91.917 226.583,-112.292 353.167,-132.333c5,-0.792 13,17.583 19.583,27.125c28.333,-33 67.042,-39.75 107.667,-47.75c257,-50.583 516.667,-68.75 778.083,-73c342.75,-5.542 685.208,5.833 1027.792,11.417c189.542,3.083 274.292,-55.917 342.875,-233.917c40.958,-106.333 72.708,-216.167 110.75,-323.708c20.917,-59.208 29.708,-124.25 82.125,-187.667c15.667,49.208 30.292,85.792 38.958,123.708c98.542,433.083 195.667,866.542 294.458,1299.583c20.792,91.208 31.667,185.167 69.333,272.042c28.333,65.375 74.458,101.625 149.667,105.208c75.542,3.583 125.875,-27.542 156.875,-92.292c21.042,-44 38.458,-90.042 54.458,-136.208c54.667,-157.875 108.208,-316.167 161.75,-474.417c41.792,-123.542 79.75,-248.5 125.417,-370.583c37.625,-100.542 57.708,-109.75 165.875,-102.667c48.75,3.208 97.167,12.333 145.958,14.75c248.792,12.25 474.708,-63.417 684.958,-188.708c175.375,-104.542 336.958,-229.292 492.583,-361.208c287.292,-243.542 573.667,-488.167 860.25,-732.542l371.833,499.792l560.75,-1384.125l0.042,-0.125l0.002,0.001Z" style="fill:#75c043;fill-rule:nonzero;"/></g><g><path d="M845.042,10569.208c0,55.667 -12.417,105.375 -37.292,149.083c-24.833,43.708 -59.875,78 -105.083,102.833c-45.208,24.833 -98.625,37.25 -160.292,37.25c-61.667,0 -115.083,-12.417 -160.292,-37.25c-45.208,-24.833 -80.25,-59.125 -105.083,-102.833c-24.833,-43.708 -37.292,-93.417 -37.292,-149.083l0,-854.042l-239.708,0l0,873.792c0,95.208 22.458,179.167 67.375,251.917c44.917,72.75 108.042,129.625 189.5,170.625c81.417,41 176.583,61.5 285.583,61.5c109,0 204,-20.5 285.125,-61.5c81.125,-41 144.292,-97.875 189.5,-170.625c45.208,-72.75 67.792,-156.708 67.792,-251.917l0,-873.792l-239.792,0l0,854.042l-0.042,0l0.001,0Z" style="fill:#75c043;fill-rule:nonzero;"/><path d="M2112.167,9772.625c-70.042,-38.292 -156.25,-57.458 -258.625,-57.458l-500.208,0l0,1338.083l239.792,0l0,-452.625l256.833,0c102.958,0 189.792,-19.167 260.417,-57.458c70.625,-38.292 124.083,-90.708 160.292,-157.167c36.208,-66.458 54.333,-142.5 54.333,-228.125c0,-85.625 -17.958,-160.875 -53.875,-227.667c-35.917,-66.75 -88.917,-119.292 -158.958,-157.625l0,0.042l-0.001,0Zm-59.708,511.875c-18.25,37.125 -46.708,66.167 -85.333,87.125c-38.625,20.958 -88.167,31.417 -148.625,31.417l-225.417,0l0,-486.75l223.625,0c61.083,0 111.042,10.167 149.958,30.542c38.917,20.375 67.5,48.792 85.75,85.292c18.25,36.542 27.375,78.458 27.375,125.708c0,47.25 -9.125,89.5 -27.375,126.625l0.042,0.042l0,-0.001Z" style="fill:#75c043;fill-rule:nonzero;"/><path d="M2479.499,9917.208l413.084,0l0,1136.042l239.75,0l0,-1136.042l412.208,0l0,-202.042l-1065.042,0l0,202.042Z" style="fill:#75c043;fill-rule:nonzero;"/><rect x="3753.792" y="9715.167" width="239.792" height="1338.083" style="fill:#75c043;"/><path d="M5076.625,10405.75c-8.375,26.333 -18.125,59.875 -29.208,100.583c-11.083,40.708 -22.458,84.583 -34.125,131.583c-11.667,47 -22.75,92.5 -33.208,136.5c-0.708,2.917 -1.375,5.792 -2.042,8.667c-0.792,-3.458 -1.625,-6.917 -2.458,-10.458c-10.5,-44.583 -21.542,-90.25 -33.208,-136.958c-11.667,-46.708 -23.042,-90.25 -34.125,-130.667c-11.083,-40.417 -21.083,-73.5 -30.083,-99.25l-254.125,-690.583l-361,0l0,1338.083l235.292,0l0,-675.333c0,-29.917 -0.458,-65.708 -1.333,-107.292c-0.875,-41.625 -1.792,-86.042 -2.708,-133.375c-0.875,-47.292 -1.958,-94.417 -3.125,-141.458c-0.5,-19.292 -0.917,-37.958 -1.333,-56.083c6.833,24.208 13.708,48.583 20.625,73.125c14.042,50 28.125,98.042 42.208,144.125c14.083,46.125 27.25,88.167 39.5,126.167c12.25,38.042 22.917,69.583 31.875,94.75l250.542,675.333l203.833,0l246.958,-675.333c9,-25.125 19.625,-57.167 31.875,-96.083c12.25,-38.917 25.292,-81.583 39.083,-127.958c13.75,-46.375 27.667,-94.292 41.75,-143.667c7.458,-26.292 14.625,-52.25 21.542,-77.917c-0.292,22.417 -0.75,45.417 -1.333,68.958c-1.208,47.583 -2.417,94.75 -3.583,141.458c-1.208,46.708 -2.083,90.417 -2.708,131.125c-0.583,40.708 -0.875,75.417 -0.875,104.167l0,675.333l238.875,0l0,-1338.083l-361.917,0l-251.458,690.583l0,-0.042l-0.003,0Z" style="fill:#75c043;fill-rule:nonzero;"/><path d="M6199.167,10477.583l582.792,0l0,-199.333l-582.792,0l0,-361.042l629.5,0l0,-202.042l-869.292,0l0,1338.083l872.875,0l0,-202.083l-633.083,0l0,-373.583Z" style="fill:#75c043;fill-rule:nonzero;"/><path d="M7913.5,9715.167l-467,1338.083l262.208,0l109.583,-331.375l500.75,0l113.458,331.375l263.125,0l-477.75,-1338.083l-304.417,0l0.043,0Zm-31.292,813.625l56.417,-170.625c21.542,-69.458 44.458,-149.833 68.708,-241.125c17.375,-65.417 36.208,-137.458 56.542,-215.958c20.708,77.417 40.042,148.542 57.958,213.25c25.167,90.708 49.417,171.958 72.75,243.833l58.417,170.625l-370.792,0Z" style="fill:#75c043;fill-rule:nonzero;"/><path d="M9114.167,9715.167l-239.75,0l0,1338.083l830.667,0l0,-202.083l-590.917,0l0,-1136Z" style="fill:#75c043;fill-rule:nonzero;"/><path d="M10154.125,9715.167l-239.792,0l0,1338.083l830.667,0l0,-202.083l-590.875,0l0,-1136Z" style="fill:#75c043;fill-rule:nonzero;"/><rect x="10954.25" y="9715.167" width="239.792" height="1338.083" style="fill:#75c043;"/><path d="M11840.625,9715.167l-467,1338.083l262.208,0l109.583,-331.375l500.75,0l113.458,331.375l263.125,0l-477.75,-1338.083l-304.417,0l0.043,0Zm-31.292,813.625l56.417,-170.625c21.542,-69.458 44.458,-149.833 68.708,-241.125c17.375,-65.417 36.208,-137.458 56.542,-215.958c20.708,77.417 40.042,148.5 57.958,213.25c25.125,90.708 49.375,171.958 72.75,243.833l58.417,170.625l-370.792,0Z" style="fill:#75c043;fill-rule:nonzero;"/><path d="M13685.208,10417.417c0,32.917 0.75,73.208 2.25,120.792c1.5,47.583 3.875,97.875 7.167,150.875c1.542,25.125 3.208,49.958 5,74.5c-11.917,-27.417 -23.917,-53.458 -35.958,-78.083c-23.333,-47.583 -45.792,-90.708 -67.375,-129.333c-21.542,-38.625 -41.917,-73.208 -61.083,-103.708l-462.5,-737.292l-271.208,0l0,1338.083l244.25,0l0,-664.542c0,-28.125 -1.042,-65.25 -3.125,-111.375c-2.125,-46.083 -4.667,-98.333 -7.625,-156.708c-1.875,-36.042 -3.833,-73.458 -5.875,-112.125c22.333,42.958 42.25,81.417 59.792,115.292c26.958,52.083 52.083,98.792 75.417,140.083c23.333,41.333 48.167,83.208 74.542,125.708l417.583,663.667l272.125,0l0,-1338.083l-243.375,0l0,702.25l-0.002,-0.001Z" style="fill:#75c043;fill-rule:nonzero;"/><path d="M15051.125,10713.333c-19.167,30.833 -42.958,56.875 -71.375,78.125c-28.458,21.25 -60.333,37.417 -95.625,48.5c-35.333,11.083 -73.042,16.625 -113.167,16.625c-71.833,0 -136.042,-17.958 -192.625,-53.875c-56.583,-35.917 -101.042,-88.917 -133.375,-158.958c-32.333,-70.042 -48.5,-156.25 -48.5,-258.625c0,-102.375 16,-186.917 48.042,-257.292c32,-70.333 76.333,-123.917 132.917,-160.75c56.583,-36.833 121.375,-55.208 194.417,-55.208c40.083,0 77.833,5.542 113.167,16.625c35.333,11.083 67.042,27.25 95.208,48.5c28.125,21.25 51.625,47.167 70.5,77.667c18.875,30.542 32.167,65.875 39.958,105.958l241.583,0c-10.792,-73.042 -32.333,-138.292 -64.667,-195.792c-32.333,-57.5 -73.5,-106.125 -123.5,-145.917c-50,-39.792 -106.875,-70.042 -170.625,-90.708c-63.75,-20.667 -132.167,-31 -205.208,-31c-116.167,0 -220.458,27.25 -312.958,81.708c-92.5,54.5 -165.542,133.083 -219.125,235.75c-53.583,102.667 -80.375,226.167 -80.375,370.458c0,144.292 26.625,266.708 79.917,369.083c53.292,102.375 126,180.833 218.208,235.292c92.208,54.5 196.958,81.708 314.333,81.708c79.042,0 151,-12 215.958,-35.917c64.958,-23.958 121.958,-57.167 171.083,-99.667c49.083,-42.5 88.75,-91.75 119,-147.708c30.208,-55.958 49.833,-116 58.833,-180.042l-242.458,0c-7.167,39.5 -20.375,74.708 -39.5,105.5l-0.042,-0.042l0.001,0.002Z" style="fill:#75c043;fill-rule:nonzero;"/><path d="M15792.875,10851.167l0,-373.583l582.833,0l0,-199.333l-582.833,0l0,-361.042l629.542,0l0,-202.042l-869.292,0l0,1338.083l872.875,0l0,-202.083l-633.125,0Z" style="fill:#75c043;fill-rule:nonzero;"/></g></svg>